<svg xmlns="http://www.w3.org/2000/svg" width="16" height="16" viewBox="0 0 16 16" fill="none" stroke-width="1.5"><desc>文档排版_智能</desc><g id="group-1" stroke="#333333" fill="#333333"><path d="M12.5 8L13.2778 9.72218L15 10.5L13.2778 11.2778L12.5 13L11.7222 11.2778L10 10.5L11.7222 9.72218L12.5 8Z" stroke="none"/><path d="M8.5 12L9.00912 12.9909L10 13.5L9.00912 14.0091L8.5 15L7.99088 14.0091L7 13.5L7.99088 12.9909L8.5 12Z" stroke="none"/></g><g id="group-0" stroke="#333333" fill="#333333"><path d="M5.5 14.25H4.25C3.42157 14.25 2.75 13.5784 2.75 12.75V3.25C2.75 2.42157 3.42157 1.75 4.25 1.75H11.75C12.5784 1.75 13.25 2.42157 13.25 3.25V6.5" stroke-linejoin="round" fill="none" vector-effect="non-scaling-stroke"/><path d="M5.5 14.25H4.25C3.42157 14.25 2.75 13.5784 2.75 12.75V3.25C2.75 2.42157 3.42157 1.75 4.25 1.75H11.75C12.5784 1.75 13.25 2.42157 13.25 3.25V6.5" stroke-linejoin="round" fill="none" vector-effect="non-scaling-stroke"/><path d="M5.25 10.5L8 10.5" stroke-linecap="round" stroke-linejoin="round" fill="none" vector-effect="non-scaling-stroke"/><path d="M5.25 10.5L8 10.5" stroke-linecap="round" stroke-linejoin="round" fill="none" vector-effect="non-scaling-stroke"/><rect x="5.25" y="4.75" width="5.5" height="3" rx="0.5" stroke-linejoin="round" fill="none" vector-effect="non-scaling-stroke"/><rect x="5.25" y="4.75" width="5.5" height="3" rx="0.5" stroke-linejoin="round" fill="none" vector-effect="non-scaling-stroke"/></g></svg>